<svg xmlns="http://www.w3.org/2000/svg" version="1.1" xmlns:xlink="http://www.w3.org/1999/xlink" xmlns:svgjs="http://svgjs.dev/svgjs" width="1440" height="560" preserveAspectRatio="none" viewBox="0 0 1440 560"><g mask="url(&quot;#SvgjsMask1000&quot;)" fill="none"><rect width="1440" height="560" x="0" y="0" fill="#0e2a47"></rect><path d="M212.45 321.13a30.14 30.14 0 1 0-33.18-50.32z" fill="#037b0b"></path><path d="M809.9 109.97L851.6 109.97L851.6 151.67L809.9 151.67z" fill="#037b0b"></path><path d="M15.59 500.21L67.25 500.21L67.25 551.87L15.59 551.87z" stroke="#d3b714"></path><path d="M529.13 551.35a15.56 15.56 0 1 0-21.61-22.39z" fill="#d3b714"></path><path d="M379.97 356.91L406.61 356.91L406.61 391.58L379.97 391.58z" fill="#d3b714"></path><path d="M768.66 66.48 a4.02 4.02 0 1 0 8.04 0 a4.02 4.02 0 1 0 -8.04 0z" stroke="#e73635"></path><path d="M1066.45 190.27L1107.05 190.27L1107.05 192.31L1066.45 192.31z" fill="#037b0b"></path><path d="M754.69 96.18L804.35 96.18L804.35 145.84L754.69 145.84z" fill="#d3b714"></path><path d="M957.61 230.78L975.37 230.78L975.37 266.81L957.61 266.81z" stroke="#037b0b"></path><path d="M835.99 251.01a47.06 47.06 0 1 0-15.92-92.76z" fill="#e73635"></path><path d="M417.15 190.24 a42.66 42.66 0 1 0 85.32 0 a42.66 42.66 0 1 0 -85.32 0z" fill="#e73635"></path><path d="M642.28 16.14L660.5 16.14L660.5 44.79L642.28 44.79z" stroke="#d3b714"></path><path d="M55.55 96.18L101.32 96.18L101.32 141.95L55.55 141.95z" fill="#037b0b"></path><path d="M723.26 259.58 a36.48 36.48 0 1 0 72.96 0 a36.48 36.48 0 1 0 -72.96 0z" stroke="#e73635"></path><path d="M1197.67 293.25 a14.02 14.02 0 1 0 28.04 0 a14.02 14.02 0 1 0 -28.04 0z" fill="#037b0b"></path><path d="M604.3 251.59L627.11 251.59L627.11 287.61L604.3 287.61z" fill="#d3b714"></path><path d="M884.48 330.79L906.63 330.79L906.63 369.39L884.48 369.39z" stroke="#037b0b"></path><path d="M483.22 438.48a30.38 30.38 0 1 0 4.33-60.61z" stroke="#e73635"></path><path d="M1037.45 385.46L1045.72 385.46L1045.72 429.74L1037.45 429.74z" stroke="#037b0b"></path><path d="M75.87 256.53L120.97 256.53L120.97 282.25L75.87 282.25z" stroke="#d3b714"></path><path d="M688.95 485.42 a54.54 54.54 0 1 0 109.08 0 a54.54 54.54 0 1 0 -109.08 0z" fill="#037b0b"></path><path d="M1307.43 76.75a21.51 21.51 0 1 0-25.86 34.38z" stroke="#037b0b"></path><path d="M478.89 378.89L517.49 378.89L517.49 417.49L478.89 417.49z" stroke="#037b0b"></path><path d="M913.11 25.62L923.02 25.62L923.02 59.24L913.11 59.24z" stroke="#037b0b"></path><path d="M1120.46 437.71L1148.35 437.71L1148.35 465.6L1120.46 465.6z" stroke="#e73635"></path><path d="M350.48 7.66L358.21 7.66L358.21 15.39L350.48 15.39z" fill="#037b0b"></path><path d="M847.44 458.24a51.13 51.13 0 1 0-66.79-77.43z" fill="#037b0b"></path><path d="M740.53 487.44a2.22 2.22 0 1 0-2.6 3.59z" stroke="#e73635"></path><path d="M1326.21 426.45L1357.22 426.45L1357.22 457.46L1326.21 457.46z" fill="#d3b714"></path><path d="M51.97 309.51a48.97 48.97 0 1 0-28.14-93.81z" stroke="#037b0b"></path><path d="M302.35 316.92L352.07 316.92L352.07 367.31L302.35 367.31z" stroke="#037b0b"></path><path d="M618.31 373.3L671.23 373.3L671.23 377.28L618.31 377.28z" stroke="#037b0b"></path><path d="M1109.7 266.31L1118.1 266.31L1118.1 274.71L1109.7 274.71z" stroke="#e73635"></path></g><defs><mask id="SvgjsMask1000"><rect width="1440" height="560" fill="#ffffff"></rect></mask></defs></svg>